<?xml version="1.0" standalone="no"?>
<svg xmlns="http://www.w3.org/2000/svg" version="1.1" width="330" height="330">
	<!-- Created with https://api.qrserver.com (QR Code API, see goQR.me/api for information) -->
	<title>QR Code</title>
	<desc>www.giandonatoinverso.it/read.php?id=a4F3kr</desc>
	<rect style="fill:rgb(255, 255, 255);fill-opacity:1" x="0" y="0" width="330" height="330" />
	<g id="elements">
		<path style="fill:rgb(134, 184, 23)" d="M 20,20 l 10,0 0,10 -10,0 z M 30,20 l 10,0 0,10 -10,0 z M 40,20 l 10,0 0,10 -10,0 z M 50,20 l 10,0 0,10 -10,0 z M 60,20 l 10,0 0,10 -10,0 z M 70,20 l 10,0 0,10 -10,0 z M 80,20 l 10,0 0,10 -10,0 z M 110,20 l 10,0 0,10 -10,0 z M 150,20 l 10,0 0,10 -10,0 z M 160,20 l 10,0 0,10 -10,0 z M 190,20 l 10,0 0,10 -10,0 z M 200,20 l 10,0 0,10 -10,0 z M 210,20 l 10,0 0,10 -10,0 z M 220,20 l 10,0 0,10 -10,0 z M 240,20 l 10,0 0,10 -10,0 z M 250,20 l 10,0 0,10 -10,0 z M 260,20 l 10,0 0,10 -10,0 z M 270,20 l 10,0 0,10 -10,0 z M 280,20 l 10,0 0,10 -10,0 z M 290,20 l 10,0 0,10 -10,0 z M 300,20 l 10,0 0,10 -10,0 z M 20,30 l 10,0 0,10 -10,0 z M 80,30 l 10,0 0,10 -10,0 z M 100,30 l 10,0 0,10 -10,0 z M 110,30 l 10,0 0,10 -10,0 z M 130,30 l 10,0 0,10 -10,0 z M 140,30 l 10,0 0,10 -10,0 z M 160,30 l 10,0 0,10 -10,0 z M 170,30 l 10,0 0,10 -10,0 z M 200,30 l 10,0 0,10 -10,0 z M 240,30 l 10,0 0,10 -10,0 z M 300,30 l 10,0 0,10 -10,0 z M 20,40 l 10,0 0,10 -10,0 z M 40,40 l 10,0 0,10 -10,0 z M 50,40 l 10,0 0,10 -10,0 z M 60,40 l 10,0 0,10 -10,0 z M 80,40 l 10,0 0,10 -10,0 z M 110,40 l 10,0 0,10 -10,0 z M 120,40 l 10,0 0,10 -10,0 z M 130,40 l 10,0 0,10 -10,0 z M 160,40 l 10,0 0,10 -10,0 z M 170,40 l 10,0 0,10 -10,0 z M 180,40 l 10,0 0,10 -10,0 z M 210,40 l 10,0 0,10 -10,0 z M 220,40 l 10,0 0,10 -10,0 z M 240,40 l 10,0 0,10 -10,0 z M 260,40 l 10,0 0,10 -10,0 z M 270,40 l 10,0 0,10 -10,0 z M 280,40 l 10,0 0,10 -10,0 z M 300,40 l 10,0 0,10 -10,0 z M 20,50 l 10,0 0,10 -10,0 z M 40,50 l 10,0 0,10 -10,0 z M 50,50 l 10,0 0,10 -10,0 z M 60,50 l 10,0 0,10 -10,0 z M 80,50 l 10,0 0,10 -10,0 z M 100,50 l 10,0 0,10 -10,0 z M 110,50 l 10,0 0,10 -10,0 z M 130,50 l 10,0 0,10 -10,0 z M 150,50 l 10,0 0,10 -10,0 z M 160,50 l 10,0 0,10 -10,0 z M 170,50 l 10,0 0,10 -10,0 z M 190,50 l 10,0 0,10 -10,0 z M 210,50 l 10,0 0,10 -10,0 z M 240,50 l 10,0 0,10 -10,0 z M 260,50 l 10,0 0,10 -10,0 z M 270,50 l 10,0 0,10 -10,0 z M 280,50 l 10,0 0,10 -10,0 z M 300,50 l 10,0 0,10 -10,0 z M 20,60 l 10,0 0,10 -10,0 z M 40,60 l 10,0 0,10 -10,0 z M 50,60 l 10,0 0,10 -10,0 z M 60,60 l 10,0 0,10 -10,0 z M 80,60 l 10,0 0,10 -10,0 z M 120,60 l 10,0 0,10 -10,0 z M 140,60 l 10,0 0,10 -10,0 z M 180,60 l 10,0 0,10 -10,0 z M 210,60 l 10,0 0,10 -10,0 z M 240,60 l 10,0 0,10 -10,0 z M 260,60 l 10,0 0,10 -10,0 z M 270,60 l 10,0 0,10 -10,0 z M 280,60 l 10,0 0,10 -10,0 z M 300,60 l 10,0 0,10 -10,0 z M 20,70 l 10,0 0,10 -10,0 z M 80,70 l 10,0 0,10 -10,0 z M 100,70 l 10,0 0,10 -10,0 z M 120,70 l 10,0 0,10 -10,0 z M 170,70 l 10,0 0,10 -10,0 z M 180,70 l 10,0 0,10 -10,0 z M 220,70 l 10,0 0,10 -10,0 z M 240,70 l 10,0 0,10 -10,0 z M 300,70 l 10,0 0,10 -10,0 z M 20,80 l 10,0 0,10 -10,0 z M 30,80 l 10,0 0,10 -10,0 z M 40,80 l 10,0 0,10 -10,0 z M 50,80 l 10,0 0,10 -10,0 z M 60,80 l 10,0 0,10 -10,0 z M 70,80 l 10,0 0,10 -10,0 z M 80,80 l 10,0 0,10 -10,0 z M 100,80 l 10,0 0,10 -10,0 z M 120,80 l 10,0 0,10 -10,0 z M 140,80 l 10,0 0,10 -10,0 z M 160,80 l 10,0 0,10 -10,0 z M 180,80 l 10,0 0,10 -10,0 z M 200,80 l 10,0 0,10 -10,0 z M 220,80 l 10,0 0,10 -10,0 z M 240,80 l 10,0 0,10 -10,0 z M 250,80 l 10,0 0,10 -10,0 z M 260,80 l 10,0 0,10 -10,0 z M 270,80 l 10,0 0,10 -10,0 z M 280,80 l 10,0 0,10 -10,0 z M 290,80 l 10,0 0,10 -10,0 z M 300,80 l 10,0 0,10 -10,0 z M 140,90 l 10,0 0,10 -10,0 z M 160,90 l 10,0 0,10 -10,0 z M 170,90 l 10,0 0,10 -10,0 z M 200,90 l 10,0 0,10 -10,0 z M 210,90 l 10,0 0,10 -10,0 z M 220,90 l 10,0 0,10 -10,0 z M 20,100 l 10,0 0,10 -10,0 z M 30,100 l 10,0 0,10 -10,0 z M 40,100 l 10,0 0,10 -10,0 z M 50,100 l 10,0 0,10 -10,0 z M 60,100 l 10,0 0,10 -10,0 z M 80,100 l 10,0 0,10 -10,0 z M 90,100 l 10,0 0,10 -10,0 z M 100,100 l 10,0 0,10 -10,0 z M 110,100 l 10,0 0,10 -10,0 z M 120,100 l 10,0 0,10 -10,0 z M 140,100 l 10,0 0,10 -10,0 z M 150,100 l 10,0 0,10 -10,0 z M 190,100 l 10,0 0,10 -10,0 z M 200,100 l 10,0 0,10 -10,0 z M 210,100 l 10,0 0,10 -10,0 z M 230,100 l 10,0 0,10 -10,0 z M 250,100 l 10,0 0,10 -10,0 z M 270,100 l 10,0 0,10 -10,0 z M 290,100 l 10,0 0,10 -10,0 z M 20,110 l 10,0 0,10 -10,0 z M 50,110 l 10,0 0,10 -10,0 z M 90,110 l 10,0 0,10 -10,0 z M 110,110 l 10,0 0,10 -10,0 z M 160,110 l 10,0 0,10 -10,0 z M 180,110 l 10,0 0,10 -10,0 z M 190,110 l 10,0 0,10 -10,0 z M 200,110 l 10,0 0,10 -10,0 z M 210,110 l 10,0 0,10 -10,0 z M 220,110 l 10,0 0,10 -10,0 z M 240,110 l 10,0 0,10 -10,0 z M 250,110 l 10,0 0,10 -10,0 z M 260,110 l 10,0 0,10 -10,0 z M 270,110 l 10,0 0,10 -10,0 z M 280,110 l 10,0 0,10 -10,0 z M 290,110 l 10,0 0,10 -10,0 z M 300,110 l 10,0 0,10 -10,0 z M 40,120 l 10,0 0,10 -10,0 z M 60,120 l 10,0 0,10 -10,0 z M 80,120 l 10,0 0,10 -10,0 z M 90,120 l 10,0 0,10 -10,0 z M 100,120 l 10,0 0,10 -10,0 z M 110,120 l 10,0 0,10 -10,0 z M 130,120 l 10,0 0,10 -10,0 z M 140,120 l 10,0 0,10 -10,0 z M 160,120 l 10,0 0,10 -10,0 z M 170,120 l 10,0 0,10 -10,0 z M 180,120 l 10,0 0,10 -10,0 z M 190,120 l 10,0 0,10 -10,0 z M 220,120 l 10,0 0,10 -10,0 z M 250,120 l 10,0 0,10 -10,0 z M 260,120 l 10,0 0,10 -10,0 z M 280,120 l 10,0 0,10 -10,0 z M 290,120 l 10,0 0,10 -10,0 z M 20,130 l 10,0 0,10 -10,0 z M 50,130 l 10,0 0,10 -10,0 z M 60,130 l 10,0 0,10 -10,0 z M 90,130 l 10,0 0,10 -10,0 z M 100,130 l 10,0 0,10 -10,0 z M 110,130 l 10,0 0,10 -10,0 z M 120,130 l 10,0 0,10 -10,0 z M 130,130 l 10,0 0,10 -10,0 z M 180,130 l 10,0 0,10 -10,0 z M 210,130 l 10,0 0,10 -10,0 z M 230,130 l 10,0 0,10 -10,0 z M 260,130 l 10,0 0,10 -10,0 z M 270,130 l 10,0 0,10 -10,0 z M 300,130 l 10,0 0,10 -10,0 z M 20,140 l 10,0 0,10 -10,0 z M 50,140 l 10,0 0,10 -10,0 z M 70,140 l 10,0 0,10 -10,0 z M 80,140 l 10,0 0,10 -10,0 z M 90,140 l 10,0 0,10 -10,0 z M 100,140 l 10,0 0,10 -10,0 z M 110,140 l 10,0 0,10 -10,0 z M 130,140 l 10,0 0,10 -10,0 z M 160,140 l 10,0 0,10 -10,0 z M 180,140 l 10,0 0,10 -10,0 z M 190,140 l 10,0 0,10 -10,0 z M 220,140 l 10,0 0,10 -10,0 z M 280,140 l 10,0 0,10 -10,0 z M 30,150 l 10,0 0,10 -10,0 z M 50,150 l 10,0 0,10 -10,0 z M 70,150 l 10,0 0,10 -10,0 z M 90,150 l 10,0 0,10 -10,0 z M 110,150 l 10,0 0,10 -10,0 z M 120,150 l 10,0 0,10 -10,0 z M 140,150 l 10,0 0,10 -10,0 z M 210,150 l 10,0 0,10 -10,0 z M 220,150 l 10,0 0,10 -10,0 z M 230,150 l 10,0 0,10 -10,0 z M 240,150 l 10,0 0,10 -10,0 z M 250,150 l 10,0 0,10 -10,0 z M 260,150 l 10,0 0,10 -10,0 z M 270,150 l 10,0 0,10 -10,0 z M 300,150 l 10,0 0,10 -10,0 z M 20,160 l 10,0 0,10 -10,0 z M 30,160 l 10,0 0,10 -10,0 z M 50,160 l 10,0 0,10 -10,0 z M 60,160 l 10,0 0,10 -10,0 z M 70,160 l 10,0 0,10 -10,0 z M 80,160 l 10,0 0,10 -10,0 z M 90,160 l 10,0 0,10 -10,0 z M 100,160 l 10,0 0,10 -10,0 z M 110,160 l 10,0 0,10 -10,0 z M 120,160 l 10,0 0,10 -10,0 z M 150,160 l 10,0 0,10 -10,0 z M 160,160 l 10,0 0,10 -10,0 z M 170,160 l 10,0 0,10 -10,0 z M 190,160 l 10,0 0,10 -10,0 z M 200,160 l 10,0 0,10 -10,0 z M 240,160 l 10,0 0,10 -10,0 z M 270,160 l 10,0 0,10 -10,0 z M 280,160 l 10,0 0,10 -10,0 z M 20,170 l 10,0 0,10 -10,0 z M 30,170 l 10,0 0,10 -10,0 z M 40,170 l 10,0 0,10 -10,0 z M 90,170 l 10,0 0,10 -10,0 z M 100,170 l 10,0 0,10 -10,0 z M 110,170 l 10,0 0,10 -10,0 z M 120,170 l 10,0 0,10 -10,0 z M 140,170 l 10,0 0,10 -10,0 z M 170,170 l 10,0 0,10 -10,0 z M 200,170 l 10,0 0,10 -10,0 z M 210,170 l 10,0 0,10 -10,0 z M 240,170 l 10,0 0,10 -10,0 z M 250,170 l 10,0 0,10 -10,0 z M 270,170 l 10,0 0,10 -10,0 z M 300,170 l 10,0 0,10 -10,0 z M 20,180 l 10,0 0,10 -10,0 z M 40,180 l 10,0 0,10 -10,0 z M 50,180 l 10,0 0,10 -10,0 z M 70,180 l 10,0 0,10 -10,0 z M 80,180 l 10,0 0,10 -10,0 z M 90,180 l 10,0 0,10 -10,0 z M 100,180 l 10,0 0,10 -10,0 z M 110,180 l 10,0 0,10 -10,0 z M 140,180 l 10,0 0,10 -10,0 z M 150,180 l 10,0 0,10 -10,0 z M 170,180 l 10,0 0,10 -10,0 z M 180,180 l 10,0 0,10 -10,0 z M 190,180 l 10,0 0,10 -10,0 z M 220,180 l 10,0 0,10 -10,0 z M 280,180 l 10,0 0,10 -10,0 z M 20,190 l 10,0 0,10 -10,0 z M 40,190 l 10,0 0,10 -10,0 z M 50,190 l 10,0 0,10 -10,0 z M 70,190 l 10,0 0,10 -10,0 z M 100,190 l 10,0 0,10 -10,0 z M 110,190 l 10,0 0,10 -10,0 z M 120,190 l 10,0 0,10 -10,0 z M 160,190 l 10,0 0,10 -10,0 z M 180,190 l 10,0 0,10 -10,0 z M 200,190 l 10,0 0,10 -10,0 z M 210,190 l 10,0 0,10 -10,0 z M 220,190 l 10,0 0,10 -10,0 z M 230,190 l 10,0 0,10 -10,0 z M 240,190 l 10,0 0,10 -10,0 z M 250,190 l 10,0 0,10 -10,0 z M 260,190 l 10,0 0,10 -10,0 z M 280,190 l 10,0 0,10 -10,0 z M 300,190 l 10,0 0,10 -10,0 z M 20,200 l 10,0 0,10 -10,0 z M 40,200 l 10,0 0,10 -10,0 z M 50,200 l 10,0 0,10 -10,0 z M 60,200 l 10,0 0,10 -10,0 z M 70,200 l 10,0 0,10 -10,0 z M 80,200 l 10,0 0,10 -10,0 z M 130,200 l 10,0 0,10 -10,0 z M 140,200 l 10,0 0,10 -10,0 z M 150,200 l 10,0 0,10 -10,0 z M 170,200 l 10,0 0,10 -10,0 z M 220,200 l 10,0 0,10 -10,0 z M 230,200 l 10,0 0,10 -10,0 z M 240,200 l 10,0 0,10 -10,0 z M 250,200 l 10,0 0,10 -10,0 z M 270,200 l 10,0 0,10 -10,0 z M 20,210 l 10,0 0,10 -10,0 z M 60,210 l 10,0 0,10 -10,0 z M 100,210 l 10,0 0,10 -10,0 z M 110,210 l 10,0 0,10 -10,0 z M 130,210 l 10,0 0,10 -10,0 z M 160,210 l 10,0 0,10 -10,0 z M 170,210 l 10,0 0,10 -10,0 z M 220,210 l 10,0 0,10 -10,0 z M 250,210 l 10,0 0,10 -10,0 z M 270,210 l 10,0 0,10 -10,0 z M 300,210 l 10,0 0,10 -10,0 z M 20,220 l 10,0 0,10 -10,0 z M 70,220 l 10,0 0,10 -10,0 z M 80,220 l 10,0 0,10 -10,0 z M 120,220 l 10,0 0,10 -10,0 z M 130,220 l 10,0 0,10 -10,0 z M 150,220 l 10,0 0,10 -10,0 z M 160,220 l 10,0 0,10 -10,0 z M 190,220 l 10,0 0,10 -10,0 z M 220,220 l 10,0 0,10 -10,0 z M 230,220 l 10,0 0,10 -10,0 z M 240,220 l 10,0 0,10 -10,0 z M 250,220 l 10,0 0,10 -10,0 z M 260,220 l 10,0 0,10 -10,0 z M 280,220 l 10,0 0,10 -10,0 z M 100,230 l 10,0 0,10 -10,0 z M 110,230 l 10,0 0,10 -10,0 z M 120,230 l 10,0 0,10 -10,0 z M 140,230 l 10,0 0,10 -10,0 z M 150,230 l 10,0 0,10 -10,0 z M 180,230 l 10,0 0,10 -10,0 z M 200,230 l 10,0 0,10 -10,0 z M 220,230 l 10,0 0,10 -10,0 z M 260,230 l 10,0 0,10 -10,0 z M 300,230 l 10,0 0,10 -10,0 z M 20,240 l 10,0 0,10 -10,0 z M 30,240 l 10,0 0,10 -10,0 z M 40,240 l 10,0 0,10 -10,0 z M 50,240 l 10,0 0,10 -10,0 z M 60,240 l 10,0 0,10 -10,0 z M 70,240 l 10,0 0,10 -10,0 z M 80,240 l 10,0 0,10 -10,0 z M 100,240 l 10,0 0,10 -10,0 z M 150,240 l 10,0 0,10 -10,0 z M 170,240 l 10,0 0,10 -10,0 z M 200,240 l 10,0 0,10 -10,0 z M 210,240 l 10,0 0,10 -10,0 z M 220,240 l 10,0 0,10 -10,0 z M 240,240 l 10,0 0,10 -10,0 z M 260,240 l 10,0 0,10 -10,0 z M 270,240 l 10,0 0,10 -10,0 z M 20,250 l 10,0 0,10 -10,0 z M 80,250 l 10,0 0,10 -10,0 z M 110,250 l 10,0 0,10 -10,0 z M 140,250 l 10,0 0,10 -10,0 z M 160,250 l 10,0 0,10 -10,0 z M 170,250 l 10,0 0,10 -10,0 z M 210,250 l 10,0 0,10 -10,0 z M 220,250 l 10,0 0,10 -10,0 z M 260,250 l 10,0 0,10 -10,0 z M 270,250 l 10,0 0,10 -10,0 z M 300,250 l 10,0 0,10 -10,0 z M 20,260 l 10,0 0,10 -10,0 z M 40,260 l 10,0 0,10 -10,0 z M 50,260 l 10,0 0,10 -10,0 z M 60,260 l 10,0 0,10 -10,0 z M 80,260 l 10,0 0,10 -10,0 z M 100,260 l 10,0 0,10 -10,0 z M 110,260 l 10,0 0,10 -10,0 z M 140,260 l 10,0 0,10 -10,0 z M 150,260 l 10,0 0,10 -10,0 z M 160,260 l 10,0 0,10 -10,0 z M 170,260 l 10,0 0,10 -10,0 z M 180,260 l 10,0 0,10 -10,0 z M 190,260 l 10,0 0,10 -10,0 z M 220,260 l 10,0 0,10 -10,0 z M 230,260 l 10,0 0,10 -10,0 z M 240,260 l 10,0 0,10 -10,0 z M 250,260 l 10,0 0,10 -10,0 z M 260,260 l 10,0 0,10 -10,0 z M 280,260 l 10,0 0,10 -10,0 z M 290,260 l 10,0 0,10 -10,0 z M 300,260 l 10,0 0,10 -10,0 z M 20,270 l 10,0 0,10 -10,0 z M 40,270 l 10,0 0,10 -10,0 z M 50,270 l 10,0 0,10 -10,0 z M 60,270 l 10,0 0,10 -10,0 z M 80,270 l 10,0 0,10 -10,0 z M 100,270 l 10,0 0,10 -10,0 z M 110,270 l 10,0 0,10 -10,0 z M 120,270 l 10,0 0,10 -10,0 z M 160,270 l 10,0 0,10 -10,0 z M 180,270 l 10,0 0,10 -10,0 z M 200,270 l 10,0 0,10 -10,0 z M 220,270 l 10,0 0,10 -10,0 z M 270,270 l 10,0 0,10 -10,0 z M 280,270 l 10,0 0,10 -10,0 z M 290,270 l 10,0 0,10 -10,0 z M 300,270 l 10,0 0,10 -10,0 z M 20,280 l 10,0 0,10 -10,0 z M 40,280 l 10,0 0,10 -10,0 z M 50,280 l 10,0 0,10 -10,0 z M 60,280 l 10,0 0,10 -10,0 z M 80,280 l 10,0 0,10 -10,0 z M 100,280 l 10,0 0,10 -10,0 z M 110,280 l 10,0 0,10 -10,0 z M 120,280 l 10,0 0,10 -10,0 z M 130,280 l 10,0 0,10 -10,0 z M 140,280 l 10,0 0,10 -10,0 z M 150,280 l 10,0 0,10 -10,0 z M 170,280 l 10,0 0,10 -10,0 z M 210,280 l 10,0 0,10 -10,0 z M 230,280 l 10,0 0,10 -10,0 z M 240,280 l 10,0 0,10 -10,0 z M 250,280 l 10,0 0,10 -10,0 z M 260,280 l 10,0 0,10 -10,0 z M 280,280 l 10,0 0,10 -10,0 z M 290,280 l 10,0 0,10 -10,0 z M 20,290 l 10,0 0,10 -10,0 z M 80,290 l 10,0 0,10 -10,0 z M 100,290 l 10,0 0,10 -10,0 z M 130,290 l 10,0 0,10 -10,0 z M 180,290 l 10,0 0,10 -10,0 z M 200,290 l 10,0 0,10 -10,0 z M 210,290 l 10,0 0,10 -10,0 z M 220,290 l 10,0 0,10 -10,0 z M 240,290 l 10,0 0,10 -10,0 z M 260,290 l 10,0 0,10 -10,0 z M 270,290 l 10,0 0,10 -10,0 z M 290,290 l 10,0 0,10 -10,0 z M 20,300 l 10,0 0,10 -10,0 z M 30,300 l 10,0 0,10 -10,0 z M 40,300 l 10,0 0,10 -10,0 z M 50,300 l 10,0 0,10 -10,0 z M 60,300 l 10,0 0,10 -10,0 z M 70,300 l 10,0 0,10 -10,0 z M 80,300 l 10,0 0,10 -10,0 z M 100,300 l 10,0 0,10 -10,0 z M 120,300 l 10,0 0,10 -10,0 z M 130,300 l 10,0 0,10 -10,0 z M 140,300 l 10,0 0,10 -10,0 z M 190,300 l 10,0 0,10 -10,0 z M 200,300 l 10,0 0,10 -10,0 z M 210,300 l 10,0 0,10 -10,0 z M 230,300 l 10,0 0,10 -10,0 z M 240,300 l 10,0 0,10 -10,0 z M 250,300 l 10,0 0,10 -10,0 z M 260,300 l 10,0 0,10 -10,0 z M 280,300 l 10,0 0,10 -10,0 z " />
	</g>
</svg>
