<?xml version="1.0" standalone="no"?>
<svg xmlns="http://www.w3.org/2000/svg" version="1.1" width="429" height="429">
	<!-- Created with https://api.qrserver.com (QR Code API, see goQR.me/api for information) -->
	<title>QR Code</title>
	<desc>MEBKM:TITLE:Google search;URL:https://google.it;</desc>
	<rect style="fill:rgb(245, 235, 245);fill-opacity:1" x="0" y="0" width="429" height="429" />
	<g id="elements">
		<path style="fill:rgb(158, 55, 159)" d="M 26,26 l 13,0 0,13 -13,0 z M 39,26 l 13,0 0,13 -13,0 z M 52,26 l 13,0 0,13 -13,0 z M 65,26 l 13,0 0,13 -13,0 z M 78,26 l 13,0 0,13 -13,0 z M 91,26 l 13,0 0,13 -13,0 z M 104,26 l 13,0 0,13 -13,0 z M 156,26 l 13,0 0,13 -13,0 z M 182,26 l 13,0 0,13 -13,0 z M 195,26 l 13,0 0,13 -13,0 z M 208,26 l 13,0 0,13 -13,0 z M 260,26 l 13,0 0,13 -13,0 z M 286,26 l 13,0 0,13 -13,0 z M 312,26 l 13,0 0,13 -13,0 z M 325,26 l 13,0 0,13 -13,0 z M 338,26 l 13,0 0,13 -13,0 z M 351,26 l 13,0 0,13 -13,0 z M 364,26 l 13,0 0,13 -13,0 z M 377,26 l 13,0 0,13 -13,0 z M 390,26 l 13,0 0,13 -13,0 z M 26,39 l 13,0 0,13 -13,0 z M 104,39 l 13,0 0,13 -13,0 z M 130,39 l 13,0 0,13 -13,0 z M 156,39 l 13,0 0,13 -13,0 z M 195,39 l 13,0 0,13 -13,0 z M 221,39 l 13,0 0,13 -13,0 z M 234,39 l 13,0 0,13 -13,0 z M 260,39 l 13,0 0,13 -13,0 z M 286,39 l 13,0 0,13 -13,0 z M 312,39 l 13,0 0,13 -13,0 z M 390,39 l 13,0 0,13 -13,0 z M 26,52 l 13,0 0,13 -13,0 z M 52,52 l 13,0 0,13 -13,0 z M 65,52 l 13,0 0,13 -13,0 z M 78,52 l 13,0 0,13 -13,0 z M 104,52 l 13,0 0,13 -13,0 z M 182,52 l 13,0 0,13 -13,0 z M 208,52 l 13,0 0,13 -13,0 z M 247,52 l 13,0 0,13 -13,0 z M 273,52 l 13,0 0,13 -13,0 z M 312,52 l 13,0 0,13 -13,0 z M 338,52 l 13,0 0,13 -13,0 z M 351,52 l 13,0 0,13 -13,0 z M 364,52 l 13,0 0,13 -13,0 z M 390,52 l 13,0 0,13 -13,0 z M 26,65 l 13,0 0,13 -13,0 z M 52,65 l 13,0 0,13 -13,0 z M 65,65 l 13,0 0,13 -13,0 z M 78,65 l 13,0 0,13 -13,0 z M 104,65 l 13,0 0,13 -13,0 z M 130,65 l 13,0 0,13 -13,0 z M 143,65 l 13,0 0,13 -13,0 z M 156,65 l 13,0 0,13 -13,0 z M 182,65 l 13,0 0,13 -13,0 z M 195,65 l 13,0 0,13 -13,0 z M 208,65 l 13,0 0,13 -13,0 z M 234,65 l 13,0 0,13 -13,0 z M 273,65 l 13,0 0,13 -13,0 z M 286,65 l 13,0 0,13 -13,0 z M 312,65 l 13,0 0,13 -13,0 z M 338,65 l 13,0 0,13 -13,0 z M 351,65 l 13,0 0,13 -13,0 z M 364,65 l 13,0 0,13 -13,0 z M 390,65 l 13,0 0,13 -13,0 z M 26,78 l 13,0 0,13 -13,0 z M 52,78 l 13,0 0,13 -13,0 z M 65,78 l 13,0 0,13 -13,0 z M 78,78 l 13,0 0,13 -13,0 z M 104,78 l 13,0 0,13 -13,0 z M 143,78 l 13,0 0,13 -13,0 z M 195,78 l 13,0 0,13 -13,0 z M 208,78 l 13,0 0,13 -13,0 z M 234,78 l 13,0 0,13 -13,0 z M 247,78 l 13,0 0,13 -13,0 z M 312,78 l 13,0 0,13 -13,0 z M 338,78 l 13,0 0,13 -13,0 z M 351,78 l 13,0 0,13 -13,0 z M 364,78 l 13,0 0,13 -13,0 z M 390,78 l 13,0 0,13 -13,0 z M 26,91 l 13,0 0,13 -13,0 z M 104,91 l 13,0 0,13 -13,0 z M 130,91 l 13,0 0,13 -13,0 z M 143,91 l 13,0 0,13 -13,0 z M 169,91 l 13,0 0,13 -13,0 z M 182,91 l 13,0 0,13 -13,0 z M 195,91 l 13,0 0,13 -13,0 z M 221,91 l 13,0 0,13 -13,0 z M 234,91 l 13,0 0,13 -13,0 z M 247,91 l 13,0 0,13 -13,0 z M 260,91 l 13,0 0,13 -13,0 z M 286,91 l 13,0 0,13 -13,0 z M 312,91 l 13,0 0,13 -13,0 z M 390,91 l 13,0 0,13 -13,0 z M 26,104 l 13,0 0,13 -13,0 z M 39,104 l 13,0 0,13 -13,0 z M 52,104 l 13,0 0,13 -13,0 z M 65,104 l 13,0 0,13 -13,0 z M 78,104 l 13,0 0,13 -13,0 z M 91,104 l 13,0 0,13 -13,0 z M 104,104 l 13,0 0,13 -13,0 z M 130,104 l 13,0 0,13 -13,0 z M 156,104 l 13,0 0,13 -13,0 z M 182,104 l 13,0 0,13 -13,0 z M 208,104 l 13,0 0,13 -13,0 z M 234,104 l 13,0 0,13 -13,0 z M 260,104 l 13,0 0,13 -13,0 z M 286,104 l 13,0 0,13 -13,0 z M 312,104 l 13,0 0,13 -13,0 z M 325,104 l 13,0 0,13 -13,0 z M 338,104 l 13,0 0,13 -13,0 z M 351,104 l 13,0 0,13 -13,0 z M 364,104 l 13,0 0,13 -13,0 z M 377,104 l 13,0 0,13 -13,0 z M 390,104 l 13,0 0,13 -13,0 z M 143,117 l 13,0 0,13 -13,0 z M 156,117 l 13,0 0,13 -13,0 z M 169,117 l 13,0 0,13 -13,0 z M 208,117 l 13,0 0,13 -13,0 z M 221,117 l 13,0 0,13 -13,0 z M 247,117 l 13,0 0,13 -13,0 z M 260,117 l 13,0 0,13 -13,0 z M 273,117 l 13,0 0,13 -13,0 z M 26,130 l 13,0 0,13 -13,0 z M 39,130 l 13,0 0,13 -13,0 z M 52,130 l 13,0 0,13 -13,0 z M 65,130 l 13,0 0,13 -13,0 z M 78,130 l 13,0 0,13 -13,0 z M 104,130 l 13,0 0,13 -13,0 z M 117,130 l 13,0 0,13 -13,0 z M 130,130 l 13,0 0,13 -13,0 z M 143,130 l 13,0 0,13 -13,0 z M 169,130 l 13,0 0,13 -13,0 z M 195,130 l 13,0 0,13 -13,0 z M 208,130 l 13,0 0,13 -13,0 z M 234,130 l 13,0 0,13 -13,0 z M 247,130 l 13,0 0,13 -13,0 z M 260,130 l 13,0 0,13 -13,0 z M 286,130 l 13,0 0,13 -13,0 z M 299,130 l 13,0 0,13 -13,0 z M 325,130 l 13,0 0,13 -13,0 z M 351,130 l 13,0 0,13 -13,0 z M 377,130 l 13,0 0,13 -13,0 z M 26,143 l 13,0 0,13 -13,0 z M 39,143 l 13,0 0,13 -13,0 z M 91,143 l 13,0 0,13 -13,0 z M 156,143 l 13,0 0,13 -13,0 z M 182,143 l 13,0 0,13 -13,0 z M 195,143 l 13,0 0,13 -13,0 z M 208,143 l 13,0 0,13 -13,0 z M 234,143 l 13,0 0,13 -13,0 z M 247,143 l 13,0 0,13 -13,0 z M 260,143 l 13,0 0,13 -13,0 z M 312,143 l 13,0 0,13 -13,0 z M 325,143 l 13,0 0,13 -13,0 z M 338,143 l 13,0 0,13 -13,0 z M 377,143 l 13,0 0,13 -13,0 z M 39,156 l 13,0 0,13 -13,0 z M 78,156 l 13,0 0,13 -13,0 z M 91,156 l 13,0 0,13 -13,0 z M 104,156 l 13,0 0,13 -13,0 z M 117,156 l 13,0 0,13 -13,0 z M 130,156 l 13,0 0,13 -13,0 z M 156,156 l 13,0 0,13 -13,0 z M 195,156 l 13,0 0,13 -13,0 z M 221,156 l 13,0 0,13 -13,0 z M 234,156 l 13,0 0,13 -13,0 z M 247,156 l 13,0 0,13 -13,0 z M 260,156 l 13,0 0,13 -13,0 z M 273,156 l 13,0 0,13 -13,0 z M 286,156 l 13,0 0,13 -13,0 z M 299,156 l 13,0 0,13 -13,0 z M 312,156 l 13,0 0,13 -13,0 z M 325,156 l 13,0 0,13 -13,0 z M 364,156 l 13,0 0,13 -13,0 z M 377,156 l 13,0 0,13 -13,0 z M 39,169 l 13,0 0,13 -13,0 z M 91,169 l 13,0 0,13 -13,0 z M 182,169 l 13,0 0,13 -13,0 z M 208,169 l 13,0 0,13 -13,0 z M 221,169 l 13,0 0,13 -13,0 z M 247,169 l 13,0 0,13 -13,0 z M 260,169 l 13,0 0,13 -13,0 z M 273,169 l 13,0 0,13 -13,0 z M 312,169 l 13,0 0,13 -13,0 z M 364,169 l 13,0 0,13 -13,0 z M 390,169 l 13,0 0,13 -13,0 z M 26,182 l 13,0 0,13 -13,0 z M 39,182 l 13,0 0,13 -13,0 z M 52,182 l 13,0 0,13 -13,0 z M 65,182 l 13,0 0,13 -13,0 z M 78,182 l 13,0 0,13 -13,0 z M 104,182 l 13,0 0,13 -13,0 z M 143,182 l 13,0 0,13 -13,0 z M 156,182 l 13,0 0,13 -13,0 z M 182,182 l 13,0 0,13 -13,0 z M 195,182 l 13,0 0,13 -13,0 z M 221,182 l 13,0 0,13 -13,0 z M 234,182 l 13,0 0,13 -13,0 z M 260,182 l 13,0 0,13 -13,0 z M 273,182 l 13,0 0,13 -13,0 z M 299,182 l 13,0 0,13 -13,0 z M 325,182 l 13,0 0,13 -13,0 z M 364,182 l 13,0 0,13 -13,0 z M 26,195 l 13,0 0,13 -13,0 z M 52,195 l 13,0 0,13 -13,0 z M 65,195 l 13,0 0,13 -13,0 z M 130,195 l 13,0 0,13 -13,0 z M 195,195 l 13,0 0,13 -13,0 z M 208,195 l 13,0 0,13 -13,0 z M 221,195 l 13,0 0,13 -13,0 z M 234,195 l 13,0 0,13 -13,0 z M 312,195 l 13,0 0,13 -13,0 z M 325,195 l 13,0 0,13 -13,0 z M 338,195 l 13,0 0,13 -13,0 z M 364,195 l 13,0 0,13 -13,0 z M 377,195 l 13,0 0,13 -13,0 z M 26,208 l 13,0 0,13 -13,0 z M 52,208 l 13,0 0,13 -13,0 z M 65,208 l 13,0 0,13 -13,0 z M 78,208 l 13,0 0,13 -13,0 z M 91,208 l 13,0 0,13 -13,0 z M 104,208 l 13,0 0,13 -13,0 z M 143,208 l 13,0 0,13 -13,0 z M 169,208 l 13,0 0,13 -13,0 z M 182,208 l 13,0 0,13 -13,0 z M 195,208 l 13,0 0,13 -13,0 z M 234,208 l 13,0 0,13 -13,0 z M 247,208 l 13,0 0,13 -13,0 z M 260,208 l 13,0 0,13 -13,0 z M 286,208 l 13,0 0,13 -13,0 z M 299,208 l 13,0 0,13 -13,0 z M 312,208 l 13,0 0,13 -13,0 z M 325,208 l 13,0 0,13 -13,0 z M 351,208 l 13,0 0,13 -13,0 z M 377,208 l 13,0 0,13 -13,0 z M 26,221 l 13,0 0,13 -13,0 z M 52,221 l 13,0 0,13 -13,0 z M 78,221 l 13,0 0,13 -13,0 z M 117,221 l 13,0 0,13 -13,0 z M 169,221 l 13,0 0,13 -13,0 z M 208,221 l 13,0 0,13 -13,0 z M 221,221 l 13,0 0,13 -13,0 z M 260,221 l 13,0 0,13 -13,0 z M 273,221 l 13,0 0,13 -13,0 z M 312,221 l 13,0 0,13 -13,0 z M 351,221 l 13,0 0,13 -13,0 z M 377,221 l 13,0 0,13 -13,0 z M 26,234 l 13,0 0,13 -13,0 z M 39,234 l 13,0 0,13 -13,0 z M 91,234 l 13,0 0,13 -13,0 z M 104,234 l 13,0 0,13 -13,0 z M 169,234 l 13,0 0,13 -13,0 z M 182,234 l 13,0 0,13 -13,0 z M 195,234 l 13,0 0,13 -13,0 z M 208,234 l 13,0 0,13 -13,0 z M 234,234 l 13,0 0,13 -13,0 z M 247,234 l 13,0 0,13 -13,0 z M 273,234 l 13,0 0,13 -13,0 z M 325,234 l 13,0 0,13 -13,0 z M 338,234 l 13,0 0,13 -13,0 z M 351,234 l 13,0 0,13 -13,0 z M 26,247 l 13,0 0,13 -13,0 z M 78,247 l 13,0 0,13 -13,0 z M 91,247 l 13,0 0,13 -13,0 z M 182,247 l 13,0 0,13 -13,0 z M 221,247 l 13,0 0,13 -13,0 z M 260,247 l 13,0 0,13 -13,0 z M 273,247 l 13,0 0,13 -13,0 z M 299,247 l 13,0 0,13 -13,0 z M 312,247 l 13,0 0,13 -13,0 z M 338,247 l 13,0 0,13 -13,0 z M 351,247 l 13,0 0,13 -13,0 z M 364,247 l 13,0 0,13 -13,0 z M 377,247 l 13,0 0,13 -13,0 z M 26,260 l 13,0 0,13 -13,0 z M 65,260 l 13,0 0,13 -13,0 z M 78,260 l 13,0 0,13 -13,0 z M 91,260 l 13,0 0,13 -13,0 z M 104,260 l 13,0 0,13 -13,0 z M 117,260 l 13,0 0,13 -13,0 z M 130,260 l 13,0 0,13 -13,0 z M 182,260 l 13,0 0,13 -13,0 z M 195,260 l 13,0 0,13 -13,0 z M 234,260 l 13,0 0,13 -13,0 z M 260,260 l 13,0 0,13 -13,0 z M 286,260 l 13,0 0,13 -13,0 z M 299,260 l 13,0 0,13 -13,0 z M 325,260 l 13,0 0,13 -13,0 z M 338,260 l 13,0 0,13 -13,0 z M 351,260 l 13,0 0,13 -13,0 z M 390,260 l 13,0 0,13 -13,0 z M 26,273 l 13,0 0,13 -13,0 z M 52,273 l 13,0 0,13 -13,0 z M 117,273 l 13,0 0,13 -13,0 z M 130,273 l 13,0 0,13 -13,0 z M 182,273 l 13,0 0,13 -13,0 z M 208,273 l 13,0 0,13 -13,0 z M 247,273 l 13,0 0,13 -13,0 z M 273,273 l 13,0 0,13 -13,0 z M 312,273 l 13,0 0,13 -13,0 z M 338,273 l 13,0 0,13 -13,0 z M 377,273 l 13,0 0,13 -13,0 z M 390,273 l 13,0 0,13 -13,0 z M 26,286 l 13,0 0,13 -13,0 z M 91,286 l 13,0 0,13 -13,0 z M 104,286 l 13,0 0,13 -13,0 z M 130,286 l 13,0 0,13 -13,0 z M 143,286 l 13,0 0,13 -13,0 z M 156,286 l 13,0 0,13 -13,0 z M 169,286 l 13,0 0,13 -13,0 z M 195,286 l 13,0 0,13 -13,0 z M 221,286 l 13,0 0,13 -13,0 z M 273,286 l 13,0 0,13 -13,0 z M 286,286 l 13,0 0,13 -13,0 z M 299,286 l 13,0 0,13 -13,0 z M 312,286 l 13,0 0,13 -13,0 z M 325,286 l 13,0 0,13 -13,0 z M 338,286 l 13,0 0,13 -13,0 z M 364,286 l 13,0 0,13 -13,0 z M 390,286 l 13,0 0,13 -13,0 z M 130,299 l 13,0 0,13 -13,0 z M 143,299 l 13,0 0,13 -13,0 z M 195,299 l 13,0 0,13 -13,0 z M 221,299 l 13,0 0,13 -13,0 z M 273,299 l 13,0 0,13 -13,0 z M 286,299 l 13,0 0,13 -13,0 z M 338,299 l 13,0 0,13 -13,0 z M 351,299 l 13,0 0,13 -13,0 z M 364,299 l 13,0 0,13 -13,0 z M 390,299 l 13,0 0,13 -13,0 z M 26,312 l 13,0 0,13 -13,0 z M 39,312 l 13,0 0,13 -13,0 z M 52,312 l 13,0 0,13 -13,0 z M 65,312 l 13,0 0,13 -13,0 z M 78,312 l 13,0 0,13 -13,0 z M 91,312 l 13,0 0,13 -13,0 z M 104,312 l 13,0 0,13 -13,0 z M 130,312 l 13,0 0,13 -13,0 z M 156,312 l 13,0 0,13 -13,0 z M 169,312 l 13,0 0,13 -13,0 z M 234,312 l 13,0 0,13 -13,0 z M 247,312 l 13,0 0,13 -13,0 z M 260,312 l 13,0 0,13 -13,0 z M 286,312 l 13,0 0,13 -13,0 z M 312,312 l 13,0 0,13 -13,0 z M 338,312 l 13,0 0,13 -13,0 z M 364,312 l 13,0 0,13 -13,0 z M 377,312 l 13,0 0,13 -13,0 z M 390,312 l 13,0 0,13 -13,0 z M 26,325 l 13,0 0,13 -13,0 z M 104,325 l 13,0 0,13 -13,0 z M 143,325 l 13,0 0,13 -13,0 z M 156,325 l 13,0 0,13 -13,0 z M 182,325 l 13,0 0,13 -13,0 z M 208,325 l 13,0 0,13 -13,0 z M 286,325 l 13,0 0,13 -13,0 z M 338,325 l 13,0 0,13 -13,0 z M 351,325 l 13,0 0,13 -13,0 z M 377,325 l 13,0 0,13 -13,0 z M 390,325 l 13,0 0,13 -13,0 z M 26,338 l 13,0 0,13 -13,0 z M 52,338 l 13,0 0,13 -13,0 z M 65,338 l 13,0 0,13 -13,0 z M 78,338 l 13,0 0,13 -13,0 z M 104,338 l 13,0 0,13 -13,0 z M 130,338 l 13,0 0,13 -13,0 z M 143,338 l 13,0 0,13 -13,0 z M 182,338 l 13,0 0,13 -13,0 z M 195,338 l 13,0 0,13 -13,0 z M 208,338 l 13,0 0,13 -13,0 z M 221,338 l 13,0 0,13 -13,0 z M 273,338 l 13,0 0,13 -13,0 z M 286,338 l 13,0 0,13 -13,0 z M 299,338 l 13,0 0,13 -13,0 z M 312,338 l 13,0 0,13 -13,0 z M 325,338 l 13,0 0,13 -13,0 z M 338,338 l 13,0 0,13 -13,0 z M 351,338 l 13,0 0,13 -13,0 z M 26,351 l 13,0 0,13 -13,0 z M 52,351 l 13,0 0,13 -13,0 z M 65,351 l 13,0 0,13 -13,0 z M 78,351 l 13,0 0,13 -13,0 z M 104,351 l 13,0 0,13 -13,0 z M 130,351 l 13,0 0,13 -13,0 z M 143,351 l 13,0 0,13 -13,0 z M 169,351 l 13,0 0,13 -13,0 z M 182,351 l 13,0 0,13 -13,0 z M 208,351 l 13,0 0,13 -13,0 z M 260,351 l 13,0 0,13 -13,0 z M 273,351 l 13,0 0,13 -13,0 z M 286,351 l 13,0 0,13 -13,0 z M 299,351 l 13,0 0,13 -13,0 z M 351,351 l 13,0 0,13 -13,0 z M 377,351 l 13,0 0,13 -13,0 z M 26,364 l 13,0 0,13 -13,0 z M 52,364 l 13,0 0,13 -13,0 z M 65,364 l 13,0 0,13 -13,0 z M 78,364 l 13,0 0,13 -13,0 z M 104,364 l 13,0 0,13 -13,0 z M 130,364 l 13,0 0,13 -13,0 z M 169,364 l 13,0 0,13 -13,0 z M 195,364 l 13,0 0,13 -13,0 z M 234,364 l 13,0 0,13 -13,0 z M 247,364 l 13,0 0,13 -13,0 z M 260,364 l 13,0 0,13 -13,0 z M 299,364 l 13,0 0,13 -13,0 z M 312,364 l 13,0 0,13 -13,0 z M 338,364 l 13,0 0,13 -13,0 z M 377,364 l 13,0 0,13 -13,0 z M 26,377 l 13,0 0,13 -13,0 z M 104,377 l 13,0 0,13 -13,0 z M 130,377 l 13,0 0,13 -13,0 z M 156,377 l 13,0 0,13 -13,0 z M 169,377 l 13,0 0,13 -13,0 z M 182,377 l 13,0 0,13 -13,0 z M 208,377 l 13,0 0,13 -13,0 z M 247,377 l 13,0 0,13 -13,0 z M 299,377 l 13,0 0,13 -13,0 z M 312,377 l 13,0 0,13 -13,0 z M 338,377 l 13,0 0,13 -13,0 z M 351,377 l 13,0 0,13 -13,0 z M 377,377 l 13,0 0,13 -13,0 z M 390,377 l 13,0 0,13 -13,0 z M 26,390 l 13,0 0,13 -13,0 z M 39,390 l 13,0 0,13 -13,0 z M 52,390 l 13,0 0,13 -13,0 z M 65,390 l 13,0 0,13 -13,0 z M 78,390 l 13,0 0,13 -13,0 z M 91,390 l 13,0 0,13 -13,0 z M 104,390 l 13,0 0,13 -13,0 z M 130,390 l 13,0 0,13 -13,0 z M 156,390 l 13,0 0,13 -13,0 z M 169,390 l 13,0 0,13 -13,0 z M 182,390 l 13,0 0,13 -13,0 z M 208,390 l 13,0 0,13 -13,0 z M 221,390 l 13,0 0,13 -13,0 z M 247,390 l 13,0 0,13 -13,0 z M 260,390 l 13,0 0,13 -13,0 z M 377,390 l 13,0 0,13 -13,0 z " />
	</g>
</svg>
