<?xml version="1.0" standalone="no"?>
<svg xmlns="http://www.w3.org/2000/svg" version="1.1" width="111" height="111">
	<!-- Created with https://api.qrserver.com (QR Code API, see goQR.me/api for information) -->
	<title>QR Code</title>
	<desc>https://wa.me/12563776756?text=Hey there! I am using WhatsApp</desc>
	<rect style="fill:rgb(255, 255, 255);fill-opacity:1" x="0" y="0" width="111" height="111" />
	<g id="elements">
		<path style="fill:rgb(0, 0, 0)" d="M 6,6 l 3,0 0,3 -3,0 z M 9,6 l 3,0 0,3 -3,0 z M 12,6 l 3,0 0,3 -3,0 z M 15,6 l 3,0 0,3 -3,0 z M 18,6 l 3,0 0,3 -3,0 z M 21,6 l 3,0 0,3 -3,0 z M 24,6 l 3,0 0,3 -3,0 z M 33,6 l 3,0 0,3 -3,0 z M 51,6 l 3,0 0,3 -3,0 z M 57,6 l 3,0 0,3 -3,0 z M 66,6 l 3,0 0,3 -3,0 z M 72,6 l 3,0 0,3 -3,0 z M 78,6 l 3,0 0,3 -3,0 z M 84,6 l 3,0 0,3 -3,0 z M 87,6 l 3,0 0,3 -3,0 z M 90,6 l 3,0 0,3 -3,0 z M 93,6 l 3,0 0,3 -3,0 z M 96,6 l 3,0 0,3 -3,0 z M 99,6 l 3,0 0,3 -3,0 z M 102,6 l 3,0 0,3 -3,0 z M 6,9 l 3,0 0,3 -3,0 z M 24,9 l 3,0 0,3 -3,0 z M 30,9 l 3,0 0,3 -3,0 z M 33,9 l 3,0 0,3 -3,0 z M 39,9 l 3,0 0,3 -3,0 z M 42,9 l 3,0 0,3 -3,0 z M 51,9 l 3,0 0,3 -3,0 z M 57,9 l 3,0 0,3 -3,0 z M 60,9 l 3,0 0,3 -3,0 z M 69,9 l 3,0 0,3 -3,0 z M 72,9 l 3,0 0,3 -3,0 z M 78,9 l 3,0 0,3 -3,0 z M 84,9 l 3,0 0,3 -3,0 z M 102,9 l 3,0 0,3 -3,0 z M 6,12 l 3,0 0,3 -3,0 z M 12,12 l 3,0 0,3 -3,0 z M 15,12 l 3,0 0,3 -3,0 z M 18,12 l 3,0 0,3 -3,0 z M 24,12 l 3,0 0,3 -3,0 z M 33,12 l 3,0 0,3 -3,0 z M 36,12 l 3,0 0,3 -3,0 z M 39,12 l 3,0 0,3 -3,0 z M 51,12 l 3,0 0,3 -3,0 z M 54,12 l 3,0 0,3 -3,0 z M 69,12 l 3,0 0,3 -3,0 z M 72,12 l 3,0 0,3 -3,0 z M 75,12 l 3,0 0,3 -3,0 z M 84,12 l 3,0 0,3 -3,0 z M 90,12 l 3,0 0,3 -3,0 z M 93,12 l 3,0 0,3 -3,0 z M 96,12 l 3,0 0,3 -3,0 z M 102,12 l 3,0 0,3 -3,0 z M 6,15 l 3,0 0,3 -3,0 z M 12,15 l 3,0 0,3 -3,0 z M 15,15 l 3,0 0,3 -3,0 z M 18,15 l 3,0 0,3 -3,0 z M 24,15 l 3,0 0,3 -3,0 z M 30,15 l 3,0 0,3 -3,0 z M 33,15 l 3,0 0,3 -3,0 z M 39,15 l 3,0 0,3 -3,0 z M 54,15 l 3,0 0,3 -3,0 z M 63,15 l 3,0 0,3 -3,0 z M 66,15 l 3,0 0,3 -3,0 z M 69,15 l 3,0 0,3 -3,0 z M 75,15 l 3,0 0,3 -3,0 z M 84,15 l 3,0 0,3 -3,0 z M 90,15 l 3,0 0,3 -3,0 z M 93,15 l 3,0 0,3 -3,0 z M 96,15 l 3,0 0,3 -3,0 z M 102,15 l 3,0 0,3 -3,0 z M 6,18 l 3,0 0,3 -3,0 z M 12,18 l 3,0 0,3 -3,0 z M 15,18 l 3,0 0,3 -3,0 z M 18,18 l 3,0 0,3 -3,0 z M 24,18 l 3,0 0,3 -3,0 z M 36,18 l 3,0 0,3 -3,0 z M 42,18 l 3,0 0,3 -3,0 z M 45,18 l 3,0 0,3 -3,0 z M 51,18 l 3,0 0,3 -3,0 z M 57,18 l 3,0 0,3 -3,0 z M 60,18 l 3,0 0,3 -3,0 z M 84,18 l 3,0 0,3 -3,0 z M 90,18 l 3,0 0,3 -3,0 z M 93,18 l 3,0 0,3 -3,0 z M 96,18 l 3,0 0,3 -3,0 z M 102,18 l 3,0 0,3 -3,0 z M 6,21 l 3,0 0,3 -3,0 z M 24,21 l 3,0 0,3 -3,0 z M 30,21 l 3,0 0,3 -3,0 z M 36,21 l 3,0 0,3 -3,0 z M 45,21 l 3,0 0,3 -3,0 z M 48,21 l 3,0 0,3 -3,0 z M 51,21 l 3,0 0,3 -3,0 z M 60,21 l 3,0 0,3 -3,0 z M 72,21 l 3,0 0,3 -3,0 z M 84,21 l 3,0 0,3 -3,0 z M 102,21 l 3,0 0,3 -3,0 z M 6,24 l 3,0 0,3 -3,0 z M 9,24 l 3,0 0,3 -3,0 z M 12,24 l 3,0 0,3 -3,0 z M 15,24 l 3,0 0,3 -3,0 z M 18,24 l 3,0 0,3 -3,0 z M 21,24 l 3,0 0,3 -3,0 z M 24,24 l 3,0 0,3 -3,0 z M 30,24 l 3,0 0,3 -3,0 z M 36,24 l 3,0 0,3 -3,0 z M 42,24 l 3,0 0,3 -3,0 z M 48,24 l 3,0 0,3 -3,0 z M 54,24 l 3,0 0,3 -3,0 z M 60,24 l 3,0 0,3 -3,0 z M 66,24 l 3,0 0,3 -3,0 z M 72,24 l 3,0 0,3 -3,0 z M 78,24 l 3,0 0,3 -3,0 z M 84,24 l 3,0 0,3 -3,0 z M 87,24 l 3,0 0,3 -3,0 z M 90,24 l 3,0 0,3 -3,0 z M 93,24 l 3,0 0,3 -3,0 z M 96,24 l 3,0 0,3 -3,0 z M 99,24 l 3,0 0,3 -3,0 z M 102,24 l 3,0 0,3 -3,0 z M 42,27 l 3,0 0,3 -3,0 z M 45,27 l 3,0 0,3 -3,0 z M 51,27 l 3,0 0,3 -3,0 z M 54,27 l 3,0 0,3 -3,0 z M 60,27 l 3,0 0,3 -3,0 z M 69,27 l 3,0 0,3 -3,0 z M 72,27 l 3,0 0,3 -3,0 z M 78,27 l 3,0 0,3 -3,0 z M 6,30 l 3,0 0,3 -3,0 z M 9,30 l 3,0 0,3 -3,0 z M 12,30 l 3,0 0,3 -3,0 z M 15,30 l 3,0 0,3 -3,0 z M 18,30 l 3,0 0,3 -3,0 z M 24,30 l 3,0 0,3 -3,0 z M 27,30 l 3,0 0,3 -3,0 z M 30,30 l 3,0 0,3 -3,0 z M 33,30 l 3,0 0,3 -3,0 z M 36,30 l 3,0 0,3 -3,0 z M 42,30 l 3,0 0,3 -3,0 z M 48,30 l 3,0 0,3 -3,0 z M 54,30 l 3,0 0,3 -3,0 z M 60,30 l 3,0 0,3 -3,0 z M 63,30 l 3,0 0,3 -3,0 z M 69,30 l 3,0 0,3 -3,0 z M 72,30 l 3,0 0,3 -3,0 z M 75,30 l 3,0 0,3 -3,0 z M 81,30 l 3,0 0,3 -3,0 z M 87,30 l 3,0 0,3 -3,0 z M 93,30 l 3,0 0,3 -3,0 z M 99,30 l 3,0 0,3 -3,0 z M 6,33 l 3,0 0,3 -3,0 z M 12,33 l 3,0 0,3 -3,0 z M 27,33 l 3,0 0,3 -3,0 z M 33,33 l 3,0 0,3 -3,0 z M 51,33 l 3,0 0,3 -3,0 z M 54,33 l 3,0 0,3 -3,0 z M 57,33 l 3,0 0,3 -3,0 z M 66,33 l 3,0 0,3 -3,0 z M 69,33 l 3,0 0,3 -3,0 z M 72,33 l 3,0 0,3 -3,0 z M 78,33 l 3,0 0,3 -3,0 z M 84,33 l 3,0 0,3 -3,0 z M 96,33 l 3,0 0,3 -3,0 z M 99,33 l 3,0 0,3 -3,0 z M 102,33 l 3,0 0,3 -3,0 z M 9,36 l 3,0 0,3 -3,0 z M 12,36 l 3,0 0,3 -3,0 z M 18,36 l 3,0 0,3 -3,0 z M 21,36 l 3,0 0,3 -3,0 z M 24,36 l 3,0 0,3 -3,0 z M 27,36 l 3,0 0,3 -3,0 z M 33,36 l 3,0 0,3 -3,0 z M 39,36 l 3,0 0,3 -3,0 z M 42,36 l 3,0 0,3 -3,0 z M 51,36 l 3,0 0,3 -3,0 z M 93,36 l 3,0 0,3 -3,0 z M 99,36 l 3,0 0,3 -3,0 z M 9,39 l 3,0 0,3 -3,0 z M 12,39 l 3,0 0,3 -3,0 z M 18,39 l 3,0 0,3 -3,0 z M 21,39 l 3,0 0,3 -3,0 z M 30,39 l 3,0 0,3 -3,0 z M 33,39 l 3,0 0,3 -3,0 z M 36,39 l 3,0 0,3 -3,0 z M 39,39 l 3,0 0,3 -3,0 z M 48,39 l 3,0 0,3 -3,0 z M 51,39 l 3,0 0,3 -3,0 z M 63,39 l 3,0 0,3 -3,0 z M 69,39 l 3,0 0,3 -3,0 z M 84,39 l 3,0 0,3 -3,0 z M 90,39 l 3,0 0,3 -3,0 z M 96,39 l 3,0 0,3 -3,0 z M 18,42 l 3,0 0,3 -3,0 z M 24,42 l 3,0 0,3 -3,0 z M 30,42 l 3,0 0,3 -3,0 z M 33,42 l 3,0 0,3 -3,0 z M 39,42 l 3,0 0,3 -3,0 z M 51,42 l 3,0 0,3 -3,0 z M 54,42 l 3,0 0,3 -3,0 z M 66,42 l 3,0 0,3 -3,0 z M 69,42 l 3,0 0,3 -3,0 z M 75,42 l 3,0 0,3 -3,0 z M 87,42 l 3,0 0,3 -3,0 z M 93,42 l 3,0 0,3 -3,0 z M 9,45 l 3,0 0,3 -3,0 z M 15,45 l 3,0 0,3 -3,0 z M 30,45 l 3,0 0,3 -3,0 z M 36,45 l 3,0 0,3 -3,0 z M 42,45 l 3,0 0,3 -3,0 z M 45,45 l 3,0 0,3 -3,0 z M 48,45 l 3,0 0,3 -3,0 z M 51,45 l 3,0 0,3 -3,0 z M 54,45 l 3,0 0,3 -3,0 z M 57,45 l 3,0 0,3 -3,0 z M 72,45 l 3,0 0,3 -3,0 z M 87,45 l 3,0 0,3 -3,0 z M 99,45 l 3,0 0,3 -3,0 z M 102,45 l 3,0 0,3 -3,0 z M 6,48 l 3,0 0,3 -3,0 z M 12,48 l 3,0 0,3 -3,0 z M 21,48 l 3,0 0,3 -3,0 z M 24,48 l 3,0 0,3 -3,0 z M 27,48 l 3,0 0,3 -3,0 z M 30,48 l 3,0 0,3 -3,0 z M 45,48 l 3,0 0,3 -3,0 z M 48,48 l 3,0 0,3 -3,0 z M 69,48 l 3,0 0,3 -3,0 z M 75,48 l 3,0 0,3 -3,0 z M 81,48 l 3,0 0,3 -3,0 z M 87,48 l 3,0 0,3 -3,0 z M 99,48 l 3,0 0,3 -3,0 z M 6,51 l 3,0 0,3 -3,0 z M 9,51 l 3,0 0,3 -3,0 z M 18,51 l 3,0 0,3 -3,0 z M 27,51 l 3,0 0,3 -3,0 z M 30,51 l 3,0 0,3 -3,0 z M 36,51 l 3,0 0,3 -3,0 z M 42,51 l 3,0 0,3 -3,0 z M 45,51 l 3,0 0,3 -3,0 z M 51,51 l 3,0 0,3 -3,0 z M 54,51 l 3,0 0,3 -3,0 z M 57,51 l 3,0 0,3 -3,0 z M 60,51 l 3,0 0,3 -3,0 z M 69,51 l 3,0 0,3 -3,0 z M 72,51 l 3,0 0,3 -3,0 z M 75,51 l 3,0 0,3 -3,0 z M 81,51 l 3,0 0,3 -3,0 z M 87,51 l 3,0 0,3 -3,0 z M 96,51 l 3,0 0,3 -3,0 z M 6,54 l 3,0 0,3 -3,0 z M 12,54 l 3,0 0,3 -3,0 z M 24,54 l 3,0 0,3 -3,0 z M 30,54 l 3,0 0,3 -3,0 z M 33,54 l 3,0 0,3 -3,0 z M 42,54 l 3,0 0,3 -3,0 z M 48,54 l 3,0 0,3 -3,0 z M 54,54 l 3,0 0,3 -3,0 z M 63,54 l 3,0 0,3 -3,0 z M 69,54 l 3,0 0,3 -3,0 z M 72,54 l 3,0 0,3 -3,0 z M 75,54 l 3,0 0,3 -3,0 z M 78,54 l 3,0 0,3 -3,0 z M 84,54 l 3,0 0,3 -3,0 z M 87,54 l 3,0 0,3 -3,0 z M 90,54 l 3,0 0,3 -3,0 z M 99,54 l 3,0 0,3 -3,0 z M 18,57 l 3,0 0,3 -3,0 z M 21,57 l 3,0 0,3 -3,0 z M 27,57 l 3,0 0,3 -3,0 z M 30,57 l 3,0 0,3 -3,0 z M 33,57 l 3,0 0,3 -3,0 z M 51,57 l 3,0 0,3 -3,0 z M 57,57 l 3,0 0,3 -3,0 z M 66,57 l 3,0 0,3 -3,0 z M 72,57 l 3,0 0,3 -3,0 z M 78,57 l 3,0 0,3 -3,0 z M 87,57 l 3,0 0,3 -3,0 z M 93,57 l 3,0 0,3 -3,0 z M 99,57 l 3,0 0,3 -3,0 z M 102,57 l 3,0 0,3 -3,0 z M 24,60 l 3,0 0,3 -3,0 z M 36,60 l 3,0 0,3 -3,0 z M 39,60 l 3,0 0,3 -3,0 z M 42,60 l 3,0 0,3 -3,0 z M 51,60 l 3,0 0,3 -3,0 z M 54,60 l 3,0 0,3 -3,0 z M 57,60 l 3,0 0,3 -3,0 z M 60,60 l 3,0 0,3 -3,0 z M 72,60 l 3,0 0,3 -3,0 z M 81,60 l 3,0 0,3 -3,0 z M 84,60 l 3,0 0,3 -3,0 z M 93,60 l 3,0 0,3 -3,0 z M 99,60 l 3,0 0,3 -3,0 z M 6,63 l 3,0 0,3 -3,0 z M 9,63 l 3,0 0,3 -3,0 z M 18,63 l 3,0 0,3 -3,0 z M 27,63 l 3,0 0,3 -3,0 z M 33,63 l 3,0 0,3 -3,0 z M 39,63 l 3,0 0,3 -3,0 z M 48,63 l 3,0 0,3 -3,0 z M 51,63 l 3,0 0,3 -3,0 z M 54,63 l 3,0 0,3 -3,0 z M 60,63 l 3,0 0,3 -3,0 z M 69,63 l 3,0 0,3 -3,0 z M 78,63 l 3,0 0,3 -3,0 z M 81,63 l 3,0 0,3 -3,0 z M 84,63 l 3,0 0,3 -3,0 z M 96,63 l 3,0 0,3 -3,0 z M 6,66 l 3,0 0,3 -3,0 z M 15,66 l 3,0 0,3 -3,0 z M 24,66 l 3,0 0,3 -3,0 z M 27,66 l 3,0 0,3 -3,0 z M 33,66 l 3,0 0,3 -3,0 z M 36,66 l 3,0 0,3 -3,0 z M 39,66 l 3,0 0,3 -3,0 z M 54,66 l 3,0 0,3 -3,0 z M 63,66 l 3,0 0,3 -3,0 z M 69,66 l 3,0 0,3 -3,0 z M 72,66 l 3,0 0,3 -3,0 z M 75,66 l 3,0 0,3 -3,0 z M 78,66 l 3,0 0,3 -3,0 z M 84,66 l 3,0 0,3 -3,0 z M 87,66 l 3,0 0,3 -3,0 z M 90,66 l 3,0 0,3 -3,0 z M 99,66 l 3,0 0,3 -3,0 z M 6,69 l 3,0 0,3 -3,0 z M 9,69 l 3,0 0,3 -3,0 z M 12,69 l 3,0 0,3 -3,0 z M 15,69 l 3,0 0,3 -3,0 z M 18,69 l 3,0 0,3 -3,0 z M 30,69 l 3,0 0,3 -3,0 z M 33,69 l 3,0 0,3 -3,0 z M 36,69 l 3,0 0,3 -3,0 z M 42,69 l 3,0 0,3 -3,0 z M 45,69 l 3,0 0,3 -3,0 z M 48,69 l 3,0 0,3 -3,0 z M 51,69 l 3,0 0,3 -3,0 z M 54,69 l 3,0 0,3 -3,0 z M 57,69 l 3,0 0,3 -3,0 z M 66,69 l 3,0 0,3 -3,0 z M 78,69 l 3,0 0,3 -3,0 z M 81,69 l 3,0 0,3 -3,0 z M 84,69 l 3,0 0,3 -3,0 z M 93,69 l 3,0 0,3 -3,0 z M 99,69 l 3,0 0,3 -3,0 z M 102,69 l 3,0 0,3 -3,0 z M 6,72 l 3,0 0,3 -3,0 z M 21,72 l 3,0 0,3 -3,0 z M 24,72 l 3,0 0,3 -3,0 z M 27,72 l 3,0 0,3 -3,0 z M 33,72 l 3,0 0,3 -3,0 z M 36,72 l 3,0 0,3 -3,0 z M 45,72 l 3,0 0,3 -3,0 z M 48,72 l 3,0 0,3 -3,0 z M 51,72 l 3,0 0,3 -3,0 z M 57,72 l 3,0 0,3 -3,0 z M 60,72 l 3,0 0,3 -3,0 z M 66,72 l 3,0 0,3 -3,0 z M 69,72 l 3,0 0,3 -3,0 z M 93,72 l 3,0 0,3 -3,0 z M 99,72 l 3,0 0,3 -3,0 z M 6,75 l 3,0 0,3 -3,0 z M 30,75 l 3,0 0,3 -3,0 z M 42,75 l 3,0 0,3 -3,0 z M 45,75 l 3,0 0,3 -3,0 z M 51,75 l 3,0 0,3 -3,0 z M 57,75 l 3,0 0,3 -3,0 z M 69,75 l 3,0 0,3 -3,0 z M 78,75 l 3,0 0,3 -3,0 z M 81,75 l 3,0 0,3 -3,0 z M 84,75 l 3,0 0,3 -3,0 z M 90,75 l 3,0 0,3 -3,0 z M 93,75 l 3,0 0,3 -3,0 z M 96,75 l 3,0 0,3 -3,0 z M 6,78 l 3,0 0,3 -3,0 z M 18,78 l 3,0 0,3 -3,0 z M 24,78 l 3,0 0,3 -3,0 z M 27,78 l 3,0 0,3 -3,0 z M 36,78 l 3,0 0,3 -3,0 z M 42,78 l 3,0 0,3 -3,0 z M 48,78 l 3,0 0,3 -3,0 z M 54,78 l 3,0 0,3 -3,0 z M 60,78 l 3,0 0,3 -3,0 z M 63,78 l 3,0 0,3 -3,0 z M 66,78 l 3,0 0,3 -3,0 z M 69,78 l 3,0 0,3 -3,0 z M 78,78 l 3,0 0,3 -3,0 z M 81,78 l 3,0 0,3 -3,0 z M 84,78 l 3,0 0,3 -3,0 z M 87,78 l 3,0 0,3 -3,0 z M 90,78 l 3,0 0,3 -3,0 z M 93,78 l 3,0 0,3 -3,0 z M 102,78 l 3,0 0,3 -3,0 z M 30,81 l 3,0 0,3 -3,0 z M 33,81 l 3,0 0,3 -3,0 z M 36,81 l 3,0 0,3 -3,0 z M 51,81 l 3,0 0,3 -3,0 z M 57,81 l 3,0 0,3 -3,0 z M 72,81 l 3,0 0,3 -3,0 z M 78,81 l 3,0 0,3 -3,0 z M 90,81 l 3,0 0,3 -3,0 z M 93,81 l 3,0 0,3 -3,0 z M 96,81 l 3,0 0,3 -3,0 z M 102,81 l 3,0 0,3 -3,0 z M 6,84 l 3,0 0,3 -3,0 z M 9,84 l 3,0 0,3 -3,0 z M 12,84 l 3,0 0,3 -3,0 z M 15,84 l 3,0 0,3 -3,0 z M 18,84 l 3,0 0,3 -3,0 z M 21,84 l 3,0 0,3 -3,0 z M 24,84 l 3,0 0,3 -3,0 z M 30,84 l 3,0 0,3 -3,0 z M 33,84 l 3,0 0,3 -3,0 z M 36,84 l 3,0 0,3 -3,0 z M 39,84 l 3,0 0,3 -3,0 z M 42,84 l 3,0 0,3 -3,0 z M 51,84 l 3,0 0,3 -3,0 z M 60,84 l 3,0 0,3 -3,0 z M 63,84 l 3,0 0,3 -3,0 z M 69,84 l 3,0 0,3 -3,0 z M 72,84 l 3,0 0,3 -3,0 z M 75,84 l 3,0 0,3 -3,0 z M 78,84 l 3,0 0,3 -3,0 z M 84,84 l 3,0 0,3 -3,0 z M 90,84 l 3,0 0,3 -3,0 z M 93,84 l 3,0 0,3 -3,0 z M 99,84 l 3,0 0,3 -3,0 z M 6,87 l 3,0 0,3 -3,0 z M 24,87 l 3,0 0,3 -3,0 z M 33,87 l 3,0 0,3 -3,0 z M 36,87 l 3,0 0,3 -3,0 z M 39,87 l 3,0 0,3 -3,0 z M 48,87 l 3,0 0,3 -3,0 z M 57,87 l 3,0 0,3 -3,0 z M 66,87 l 3,0 0,3 -3,0 z M 69,87 l 3,0 0,3 -3,0 z M 72,87 l 3,0 0,3 -3,0 z M 75,87 l 3,0 0,3 -3,0 z M 78,87 l 3,0 0,3 -3,0 z M 90,87 l 3,0 0,3 -3,0 z M 93,87 l 3,0 0,3 -3,0 z M 96,87 l 3,0 0,3 -3,0 z M 99,87 l 3,0 0,3 -3,0 z M 6,90 l 3,0 0,3 -3,0 z M 12,90 l 3,0 0,3 -3,0 z M 15,90 l 3,0 0,3 -3,0 z M 18,90 l 3,0 0,3 -3,0 z M 24,90 l 3,0 0,3 -3,0 z M 30,90 l 3,0 0,3 -3,0 z M 33,90 l 3,0 0,3 -3,0 z M 36,90 l 3,0 0,3 -3,0 z M 39,90 l 3,0 0,3 -3,0 z M 54,90 l 3,0 0,3 -3,0 z M 63,90 l 3,0 0,3 -3,0 z M 66,90 l 3,0 0,3 -3,0 z M 69,90 l 3,0 0,3 -3,0 z M 75,90 l 3,0 0,3 -3,0 z M 78,90 l 3,0 0,3 -3,0 z M 81,90 l 3,0 0,3 -3,0 z M 84,90 l 3,0 0,3 -3,0 z M 87,90 l 3,0 0,3 -3,0 z M 90,90 l 3,0 0,3 -3,0 z M 99,90 l 3,0 0,3 -3,0 z M 102,90 l 3,0 0,3 -3,0 z M 6,93 l 3,0 0,3 -3,0 z M 12,93 l 3,0 0,3 -3,0 z M 15,93 l 3,0 0,3 -3,0 z M 18,93 l 3,0 0,3 -3,0 z M 24,93 l 3,0 0,3 -3,0 z M 30,93 l 3,0 0,3 -3,0 z M 36,93 l 3,0 0,3 -3,0 z M 42,93 l 3,0 0,3 -3,0 z M 45,93 l 3,0 0,3 -3,0 z M 48,93 l 3,0 0,3 -3,0 z M 51,93 l 3,0 0,3 -3,0 z M 54,93 l 3,0 0,3 -3,0 z M 57,93 l 3,0 0,3 -3,0 z M 60,93 l 3,0 0,3 -3,0 z M 66,93 l 3,0 0,3 -3,0 z M 72,93 l 3,0 0,3 -3,0 z M 81,93 l 3,0 0,3 -3,0 z M 84,93 l 3,0 0,3 -3,0 z M 87,93 l 3,0 0,3 -3,0 z M 90,93 l 3,0 0,3 -3,0 z M 96,93 l 3,0 0,3 -3,0 z M 6,96 l 3,0 0,3 -3,0 z M 12,96 l 3,0 0,3 -3,0 z M 15,96 l 3,0 0,3 -3,0 z M 18,96 l 3,0 0,3 -3,0 z M 24,96 l 3,0 0,3 -3,0 z M 30,96 l 3,0 0,3 -3,0 z M 33,96 l 3,0 0,3 -3,0 z M 36,96 l 3,0 0,3 -3,0 z M 45,96 l 3,0 0,3 -3,0 z M 48,96 l 3,0 0,3 -3,0 z M 54,96 l 3,0 0,3 -3,0 z M 60,96 l 3,0 0,3 -3,0 z M 66,96 l 3,0 0,3 -3,0 z M 75,96 l 3,0 0,3 -3,0 z M 84,96 l 3,0 0,3 -3,0 z M 93,96 l 3,0 0,3 -3,0 z M 96,96 l 3,0 0,3 -3,0 z M 6,99 l 3,0 0,3 -3,0 z M 24,99 l 3,0 0,3 -3,0 z M 30,99 l 3,0 0,3 -3,0 z M 33,99 l 3,0 0,3 -3,0 z M 42,99 l 3,0 0,3 -3,0 z M 45,99 l 3,0 0,3 -3,0 z M 51,99 l 3,0 0,3 -3,0 z M 54,99 l 3,0 0,3 -3,0 z M 60,99 l 3,0 0,3 -3,0 z M 69,99 l 3,0 0,3 -3,0 z M 75,99 l 3,0 0,3 -3,0 z M 81,99 l 3,0 0,3 -3,0 z M 84,99 l 3,0 0,3 -3,0 z M 87,99 l 3,0 0,3 -3,0 z M 90,99 l 3,0 0,3 -3,0 z M 96,99 l 3,0 0,3 -3,0 z M 6,102 l 3,0 0,3 -3,0 z M 9,102 l 3,0 0,3 -3,0 z M 12,102 l 3,0 0,3 -3,0 z M 15,102 l 3,0 0,3 -3,0 z M 18,102 l 3,0 0,3 -3,0 z M 21,102 l 3,0 0,3 -3,0 z M 24,102 l 3,0 0,3 -3,0 z M 30,102 l 3,0 0,3 -3,0 z M 36,102 l 3,0 0,3 -3,0 z M 42,102 l 3,0 0,3 -3,0 z M 48,102 l 3,0 0,3 -3,0 z M 51,102 l 3,0 0,3 -3,0 z M 54,102 l 3,0 0,3 -3,0 z M 60,102 l 3,0 0,3 -3,0 z M 63,102 l 3,0 0,3 -3,0 z M 66,102 l 3,0 0,3 -3,0 z M 69,102 l 3,0 0,3 -3,0 z M 75,102 l 3,0 0,3 -3,0 z M 81,102 l 3,0 0,3 -3,0 z M 90,102 l 3,0 0,3 -3,0 z M 99,102 l 3,0 0,3 -3,0 z " />
	</g>
</svg>
